<?xml version="1.0" standalone="no"?>
<!DOCTYPE svg PUBLIC "-//W3C//DTD SVG 20010904//EN"
 "http://www.w3.org/TR/2001/REC-SVG-20010904/DTD/svg10.dtd">
<svg version="1.0" xmlns="http://www.w3.org/2000/svg"
 width="16.000000pt" height="16.000000pt" viewBox="0 0 16.000000 16.000000"
 preserveAspectRatio="xMidYMid meet">
<metadata>
Created by potrace 1.11, written by Peter Selinger 2001-2013
</metadata>
<g transform="translate(0.000000,16.000000) scale(0.005333,-0.005333)"
fill="#000000" stroke="none">
<path d="M1284 2684 c-21 -15 -44 -34 -51 -44 -6 -9 -29 -36 -51 -61 -94 -106
-211 -240 -262 -299 -30 -35 -60 -69 -67 -76 -10 -9 1 -22 48 -59 83 -65 192
-176 255 -260 46 -61 144 -218 144 -230 0 -2 11 -28 25 -57 79 -171 119 -367
119 -583 0 -279 -73 -532 -222 -765 -37 -59 -141 -193 -154 -198 -35 -15 50
-18 450 -18 l457 1 41 45 c22 25 56 63 75 84 19 21 39 44 44 50 6 6 53 61 105
121 52 61 97 112 100 115 3 3 66 75 139 160 74 85 139 160 145 165 9 8 80 89
226 259 14 16 45 51 70 79 58 64 79 103 80 150 0 54 -25 101 -77 145 -24 20
-57 48 -72 62 -15 14 -41 36 -57 50 -54 46 -179 155 -184 161 -3 3 -79 70
-170 149 -91 79 -167 146 -170 149 -3 4 -21 19 -40 35 -30 25 -140 120 -174
151 -6 6 -45 39 -86 75 -41 36 -80 70 -86 75 -33 29 -94 83 -234 205 -85 74
-157 138 -160 141 -3 4 -21 16 -40 28 -50 30 -117 28 -166 -5z"/>
<path d="M564 1873 c-27 -32 -79 -92 -116 -134 l-68 -76 53 -36 c159 -108 269
-277 308 -472 11 -57 15 -208 5 -250 -32 -146 -78 -250 -153 -342 -26 -32 -50
-59 -55 -61 -21 -9 3 -35 124 -139 l130 -112 22 22 c45 45 135 174 169 242 92
184 122 312 121 520 -1 331 -147 629 -413 843 -36 28 -68 52 -71 52 -4 0 -28
-26 -56 -57z"/>
<path d="M80 1318 c-39 -44 -69 -82 -67 -84 2 -3 13 -6 25 -9 86 -16 148 -99
140 -186 -6 -55 -38 -109 -80 -134 -15 -9 -28 -19 -27 -23 0 -4 27 -29 61 -57
33 -27 77 -65 99 -83 l38 -33 36 38 c180 188 125 507 -107 627 l-47 25 -71
-81z"/>
</g>
</svg>
